<svg id="Layer_1" data-name="Layer 1" xmlns="http://www.w3.org/2000/svg" viewBox="0 0 512 512"><defs><style>.cls-1{fill:#72bcfa;}.cls-2{fill:#008aff;}</style></defs><path class="cls-1" d="M1.16,314.79C5.36,383.83,66.06,436,135.23,436H388a.71.71,0,0,0,.7-.7h0c0-142.41-115.45-257.85-257.85-257.85h-.7A129.24,129.24,0,0,0,1.16,314.79Z"/><path class="cls-2" d="M511.75,213.39c-4.2,69-64.9,121.18-134.07,121.18H124.87a.7.7,0,0,1-.7-.69h0C124.17,191.47,239.62,76,382,76h.7A129.25,129.25,0,0,1,511.75,213.39Z"/></svg>